<svg xmlns="http://www.w3.org/2000/svg" xmlns:xlink="http://www.w3.org/1999/xlink" id="Layer_1" x="0px" y="0px" viewBox="51.9 290.7 507.4 226.3" xml:space="preserve">
<g id="XMLID_1_" display="none">
	<path id="XMLID_2_" display="inline" fill="#E95C50" d="M261.8,401.1h6.2v34.7H262l-3.2-8.4c-5,3.8-10.3,6.6-15.5,8.4   c-5.3,1.8-10.9,2.7-16.8,2.7c-15,0-27.2-4.6-36.6-14c-9.5-9.4-14.2-21.5-14.2-36.4c0-6.3,0.8-12.3,2.4-17.7   c1.6-5.4,4.1-10.4,7.5-14.9c5.2-7,11.3-12.2,18.4-15.8c7.1-3.6,15.1-5.3,23.9-5.3c5.7,0,10.9,0.8,15.6,2.3c4.8,1.5,9.2,3.9,13.4,7   l2.6-8.3h6.5l0.9,32h-6.2c-2.2-8.1-5.7-14.4-10.6-18.9c-4.9-4.5-10.7-6.7-17.3-6.7c-9.2,0-16.7,4-22.2,12c-5.6,8-8.3,18.8-8.3,32.5   s2.7,24.3,8,31.8c5.3,7.6,12.8,11.4,22.2,11.4c7.5,0,13.8-2.4,18.8-7.3C256.1,417.4,259.7,410.4,261.8,401.1z"></path>
	<path id="XMLID_16_" display="inline" fill="#89878A" d="M285.7,435.8c0.2-2.4,0.2-4.8,0.3-7.1c0.1-2.4,0.1-4.8,0.1-7.3   c0-3.2-0.1-6.2-0.1-9.1c-0.1-2.8-0.2-5.4-0.3-7.9h6.8c2.1,8.8,5.3,15.5,9.6,19.8c4.4,4.4,9.9,6.6,16.4,6.6c5.6,0,9.9-1.4,13.1-4.3   s4.9-6.7,4.9-11.7c0-3.9-1.2-7.1-3.6-9.7s-8-5.9-16.8-9.9c-10.9-4.9-18.5-9.8-22.7-14.7c-4.2-4.9-6.3-11.1-6.3-18.5   c0-8.4,2.8-15.1,8.3-20.3c5.5-5.2,12.8-7.7,21.7-7.7c5.2,0,9.7,0.6,13.5,1.9c3.9,1.2,7.4,3.2,10.7,5.9l1.8-6.3h7   c0,4.8,0.1,9.5,0.2,14.2c0.1,4.6,0.2,9.2,0.5,13.7h-6.6c-1.5-6.9-4.4-12.3-8.8-16.3c-4.4-3.9-9.8-5.9-16-5.9   c-4.4,0-7.9,1.2-10.7,3.7c-2.7,2.5-4.1,5.7-4.1,9.6c0,5.5,5.4,10.7,16.3,15.7c0.3,0.2,0.5,0.2,0.6,0.3   c14.6,6.6,24.1,12.5,28.4,17.5c4.4,5,6.6,11.2,6.6,18.6c0,9.5-3.2,17.1-9.7,22.9c-6.5,5.8-15.1,8.7-25.8,8.7   c-5.8,0-10.9-0.8-15.1-2.3c-4.2-1.5-8-4-11.6-7.3l-1.8,7.3L285.7,435.8L285.7,435.8z"></path>
	<path id="XMLID_18_" display="inline" fill="#E95C50" d="M431.9,393.2h46.5v5.8c-4.1,0-7,0.6-8.5,1.9s-2.3,3.6-2.3,6.9v20.1h-1.1   c-2.4,0-4.9,0.2-7.5,0.7c-2.7,0.5-5.3,1.2-7.9,2.2c-1.1,0.4-2.7,1-4.9,1.8c-9.9,3.9-18.5,5.8-25.9,5.8c-15.1,0-27.3-4.6-36.8-13.8   c-9.5-9.2-14.2-21.1-14.2-35.9c0-6.2,0.7-12,2.3-17.5c1.5-5.4,3.8-10.4,6.9-14.9c5-7.3,10.9-12.9,17.9-16.6   c7-3.7,14.7-5.6,23.5-5.6c5.9,0,11.4,0.8,16.5,2.3c5,1.6,9.9,4,14.5,7.3l2.4-7.9h6.8l0.8,31.1h-6.5c-1.9-8.1-5.3-14.3-10.3-18.5   c-4.9-4.3-11.2-6.3-18.6-6.3c-9.4,0-16.8,4-22,12.2c-5.3,8.1-7.9,19.4-7.9,33.9c0,13,2.6,23.3,7.6,30.8c5.1,7.5,12,11.3,20.8,11.3   c6.3,0,11.2-1.4,14.7-4c3.5-2.7,5.2-6.4,5.2-11.3v-6.6c0-3.2-0.9-5.6-2.5-7c-1.7-1.5-4.3-2.3-7.8-2.3h-1.6v-5.8H431.9z"></path>
</g>
<g id="XMLID_4_">
	<path id="XMLID_34_" fill="#E85C50" d="M163.3,296.9c9.1-4.3,19.2-6.1,29.2-5.8c12.2-0.1,24.3,3.9,34.1,11.1   c1.1-3.1,1.8-6.5,3.1-9.6c2.6-0.8,5.6-0.3,8.3-0.2c0.1,13.1,0.7,26.1,0.9,39.2c-2.6-0.1-5.1-0.1-7.7-0.1   c-2.7-9.7-7.5-19.3-15.8-25.3c-8.5-6.4-20.3-7.5-30.1-3.7c-8.3,3.2-14.5,10.2-18.5,18c-5,9.8-6.5,20.9-7,31.7   c-10.9,3.2-21.6,7-32.1,11.4c-1.2-13.8,0.8-28.3,7.7-40.5C141.8,311.9,151.5,302.4,163.3,296.9z"></path>
	<path id="XMLID_33_" fill="#E85C50" d="M389.8,302.6c9.9-7.7,22.4-11.6,34.9-11.6c12.3-0.3,24.9,2.5,35.3,9.1   c1.2,0.8,2.5,1.5,3.9,2.1c0.9-3.1,1.8-6.3,2.8-9.4c2.8,0,5.6,0,8.3,0c0.5,12.8,0.7,25.5,1.2,38.3c-2.7,0.1-5.5,0.2-8.2,0   c-2-9.1-6.4-18.1-14-23.7c-7.9-6-18.4-7.6-27.9-6c-8.3,1.5-15.5,7-20,14.1c-4.8,7.4-7.3,15.9-8.6,24.5c-10.1-1.6-20.3-3.1-30.4-4.1   C370.8,322.7,379,310.9,389.8,302.6z"></path>
	<g id="XMLID_29_">
		<path id="XMLID_30_" fill="#E85C50" d="M274.9,341.5c34.2-1.6,68.6-0.6,102.7,3.7c30.7,4,61.3,10.4,90.4,20.7    c23.9,8.7,47.5,19.7,66.7,36.6c11.1,10,21.1,22.6,23.6,37.6l0.9,0.8c-0.5,0-1,0.1-1.1-0.5c-4.9-9.9-12.5-18.2-20.7-25.5    c-15.6-13.5-34.1-23.5-53.1-31.3c-0.1,7.3,0,14.6,0,21.9c-13.8-0.9-26,6.7-39,10c-13.5,3.9-28.3,3.7-41.7-0.6    c-11.4-3.6-21.4-11.1-28.5-20.7c-8.3-11.1-11.5-25.3-11-39c-9-0.8-18-1.6-27-2c-6.4-0.7-12.9-0.3-19.3-0.6    c-13.5,0-27-0.2-40.5,0.3c-34.8,1.7-69.6,6.2-103.4,14.8c-4.3,1.1-8.6,2.1-12.8,3.6c1.9,10.7,6.2,21.6,14.7,28.8    c7.7,6.5,18.6,8.2,28.3,6.3c7.8-1.5,14.7-6.2,19.3-12.6c4.6-6.3,7.3-13.7,9-21.3c2.6-0.2,5.2-0.1,7.8,0.1    c-0.1,14.1,0.2,28.2-0.1,42.3c-2.5,0.1-5,0.1-7.5,0c-1.4-3.3-2.4-6.8-4-10.1c-5.3,3.8-11,7.3-17.2,9.5c-13.4,4.9-28.2,5-41.9,1.3    c-17.1-4.6-31.6-17.7-38-34.3c-15.4,5.7-30.1,13.1-43.8,22.1c-14.3,9.6-27.6,21.6-35.8,37.1c2.3-15.1,12.2-27.8,23.2-37.8    c20.2-18,45.3-29.3,70.6-38.2C187.4,350.6,231.2,343.9,274.9,341.5z M396.4,359.8c0.3,13.4,3,27.7,11.9,38.3    c5.2,6.3,13.1,10,21.2,10.3c7.4,0.2,15.5-1,21-6.3c4.1-3.9,5.1-10,4.8-15.4c-0.1-4.6,0.5-10.3-3.3-13.7c-3.2-2.3-7.4-2.8-11.2-2.6    c-0.2-0.3-0.5-1.1-0.7-1.4C425.7,365.2,411.1,362.1,396.4,359.8z"></path>
	</g>
	<path id="XMLID_28_" fill="#E85C50" d="M481.8,363.3c5.3-0.3,10.5-0.4,15.8-0.2c0,2.4,0,4.8-0.1,7.1   C492.4,367.8,487.2,365.3,481.8,363.3z"></path>
	<path id="XMLID_15_" fill="#89878A" d="M292.9,291.3c12.8-1.6,26.9,0.1,37,8.7c1.1-2.4,1.2-5.2,2.5-7.5c2.8-0.2,5.6-0.1,8.3-0.1   c0.3,11.4,0.3,22.9,0.8,34.3c-2.8,0-5.5,0-8.3,0c-1.7-8.5-6-16.8-13.3-21.8c-5.9-4.3-13.5-6-20.8-5c-5.3,0.7-10.4,4-12.7,8.9   c-1.8,3.8-2.3,8.5-0.1,12.3c2.9,5.4,8.5,8.5,13.5,11.6c-11.8,0.1-23.6,0.6-35.3,1.3c-1.8-9.1-1.1-19.2,3.9-27.3   C273.7,298.1,283.1,292.6,292.9,291.3z"></path>
	<path id="XMLID_14_" fill="#89878A" d="M277.4,353.2c13.5-0.5,27-0.2,40.5-0.3c6.5,0.2,12.9-0.1,19.3,0.6   c7.6,6.1,11.6,15.9,11.4,25.5c0.3,9.1-2.5,18.6-8.7,25.4c-7.1,8.2-17.7,12.5-28.2,13.4c-8.8,0.7-18,0.3-26.2-3   c-4.8-1.9-8.9-4.9-12.8-8.2c-0.7,2.8-1.4,5.7-2.1,8.6c-2.9,0-5.8,0-8.7,0c0.7-12.8,0.6-25.7,0.1-38.5c2.8,0,5.6,0,8.4,0   c2.5,9.6,6.2,19.7,14,26.2c6.9,5.8,16.7,7.2,25.3,5.3c5.4-1.2,10.5-4.9,12.9-10c3-6.8,2.3-15.8-3.3-21c-4.3-3.8-9.5-6.3-14.6-8.9   C295.1,363.9,285.4,359.8,277.4,353.2z"></path>
</g>
<g id="XMLID_3_">
	<g id="XMLID_153_">
		<path id="XMLID_173_" fill="#E95C50" d="M148.9,459.6h2.2v12.1h-2.1l-1.1-2.9c-1.8,1.3-3.6,2.3-5.4,2.9c-1.8,0.6-3.8,1-5.8,1    c-5.2,0-9.5-1.6-12.8-4.9c-3.3-3.2-4.9-7.5-4.9-12.6c0-2.2,0.3-4.3,0.8-6.2c0.6-1.9,1.4-3.6,2.6-5.2c1.8-2.4,3.9-4.3,6.4-5.5    c2.5-1.2,5.3-1.9,8.3-1.9c2,0,3.8,0.3,5.4,0.8s3.2,1.4,4.6,2.4l0.9-2.9h2.3l0.3,11.1h-2.2c-0.7-2.8-2-5-3.7-6.6    c-1.7-1.6-3.7-2.3-6-2.3c-3.2,0-5.8,1.4-7.7,4.2c-1.9,2.8-2.9,6.5-2.9,11.3s0.9,8.4,2.8,11.1c1.9,2.7,4.4,4,7.7,4    c2.6,0,4.8-0.9,6.5-2.6C146.9,465.3,148.1,462.9,148.9,459.6z"></path>
		<path id="XMLID_171_" fill="#E95C50" d="M155.4,471.9v-2.1h0.4c1.6,0,2.8-0.3,3.4-1.1c0.6-0.7,0.9-2.1,0.9-4.1v-21.3    c0-1.6-0.3-2.6-1-3.2c-0.6-0.6-1.8-0.9-3.5-0.9h-0.2v-2c1.7,0.1,3.3,0.1,4.8,0.1c1.5,0,2.9,0.1,4.2,0.1c1,0,2.2,0,3.7-0.1    c1.5,0,3.3-0.1,5.3-0.1v2h-0.3c-1.8,0-3.1,0.3-3.7,0.9c-0.6,0.6-1,1.8-1,3.5v18.9c0,2.7,0.5,4.5,1.4,5.4c0.9,0.9,2.6,1.4,5.2,1.4    c2.9,0,5.2-0.6,6.7-1.9c1.6-1.2,2.7-3.2,3.2-5.9h2.1l-0.2,10.4c-2.5-0.1-5.2-0.1-7.8-0.1s-5.3-0.1-7.9-0.1c-1.8,0-3.8,0-5.9,0.1    c-2.2,0-4.4,0.1-6.9,0.1c-0.2,0-0.4,0-0.7,0c-0.3,0-0.5,0-0.6,0c-0.2,0-0.4,0-0.7,0C155.8,471.9,155.6,471.9,155.4,471.9z"></path>
		<path id="XMLID_169_" fill="#E95C50" d="M189.6,471.9v-2.2c1.9,0,3.2-0.4,3.9-1.2c0.6-0.8,1-2.7,1-5.6v-19.1c0-1.9-0.3-3.2-1-3.9    c-0.6-0.7-1.8-1.1-3.5-1.1h-0.4v-2c1.8,0.1,3.6,0.2,5.3,0.2c1.8,0.1,3.5,0.1,5.2,0.1c2.6,0,5.4,0,8.4-0.1c3-0.1,6.2-0.1,9.4-0.2v9    h-2.1c-0.6-2.5-1.5-4.2-2.8-5.1s-3.9-1.3-7.7-1.3c-1.4,0-2.2,0.1-2.4,0.3c-0.3,0.2-0.5,0.6-0.5,1.4v11.3h0.9c2,0,3.5-0.4,4.4-1.2    c0.9-0.9,1.6-2.3,2-4.5h2.2c-0.1,1-0.2,2-0.2,3.1c-0.1,1.1-0.1,2.3-0.1,3.7c0,1.2,0,2.4,0.1,3.6c0.1,1.2,0.1,2.4,0.2,3.6h-2    c-0.4-2.2-1.1-3.7-2-4.5c-1-0.9-2.6-1.2-4.7-1.2h-0.7v9.2c0,1.8,0.5,3.1,1.4,3.9c0.9,0.8,2.4,1.2,4.5,1.2c3.1,0,5.4-0.6,6.9-1.7    c1.4-1.1,2.4-3.2,2.9-6.1h1.9v10.5c-2.7-0.1-5.4-0.1-8.2-0.2c-2.8-0.1-6.3-0.1-10.7-0.1h-3.1c-2.4,0-4.2,0-5.4,0.1    C191.6,471.8,190.6,471.9,189.6,471.9z"></path>
		<path id="XMLID_166_" fill="#E95C50" d="M221.7,471.9v-2.1c1.2-0.1,2.3-0.5,3.1-1.1c0.8-0.6,1.5-1.6,2.1-2.9l12.4-29.3h2.6    l11.6,29.2c0.6,1.5,1.3,2.6,2,3.1c0.7,0.6,1.8,0.9,3.2,1v2.1c-1.5-0.1-3-0.1-4.5-0.1c-1.5,0-2.9-0.1-4.4-0.1c-1.5,0-2.9,0-4.4,0.1    c-1.5,0-2.9,0.1-4.5,0.1v-2.1c1.9-0.1,3.1-0.3,3.6-0.6c0.6-0.3,0.8-0.8,0.8-1.5c0-0.4-0.1-0.9-0.3-1.6c-0.2-0.7-0.5-1.5-0.7-2.3    l-1-2.7h-11.6l-0.9,2c-0.3,0.7-0.6,1.5-0.7,2.2c-0.2,0.7-0.3,1.3-0.3,1.7c0,1,0.3,1.7,1,2.2c0.7,0.5,1.8,0.7,3.2,0.7v2.1    c-1.1-0.1-2.2-0.1-3.2-0.1c-1.1,0-2.1-0.1-3.1-0.1c-1,0-2,0-3,0.1C223.7,471.8,222.7,471.8,221.7,471.9z M232.8,458.5h9.5l-4.5-12    L232.8,458.5z"></path>
		<path id="XMLID_164_" fill="#E95C50" d="M260.6,471.9v-2.2c1.8-0.2,3-0.7,3.7-1.6c0.7-0.9,1-2.4,1-4.6v-21.7l-0.6-0.8    c-0.5-0.7-1.1-1.1-1.8-1.4c-0.6-0.3-1.5-0.5-2.6-0.5v-2c0.5,0.1,1.1,0.1,1.8,0.1c0.7,0,1.8,0.1,3.3,0.1c1.5,0,2.6,0,3.5-0.1    c0.8,0,1.6-0.1,2.4-0.1l20.6,23.6v-15.4c0-2.2-0.3-3.8-1.1-4.7c-0.7-0.9-2-1.4-3.7-1.4v-2c1.2,0.1,2.4,0.1,3.3,0.1    c1,0,1.9,0.1,2.6,0.1c0.7,0,1.5,0,2.6-0.1c1,0,2.3-0.1,3.8-0.1v2c-1.8,0.1-3.1,0.6-3.7,1.5c-0.7,0.9-1,2.5-1,4.9v27.1h-2.9    L268.2,445v18.5c0,2.2,0.4,3.7,1.1,4.7s2,1.5,3.6,1.5v2.1c-1.1-0.1-2.3-0.1-3.5-0.1s-2.6-0.1-4.3-0.1c-0.9,0-1.8,0-2.5,0.1    C261.9,471.8,261.2,471.8,260.6,471.9z"></path>
		<path id="XMLID_162_" fill="#89878A" d="M317.3,471.7c0.1-0.9,0.1-1.6,0.1-2.5s0.1-1.6,0.1-2.5c0-1.1,0-2.2-0.1-3.2    c0-1-0.1-1.9-0.1-2.8h2.4c0.7,3.1,1.9,5.4,3.3,6.9c1.5,1.5,3.5,2.3,5.7,2.3c1.9,0,3.5-0.5,4.6-1.5c1.1-1,1.7-2.4,1.7-4.1    c0-1.4-0.4-2.5-1.2-3.4c-0.9-0.9-2.8-2-5.8-3.4c-3.8-1.7-6.4-3.4-7.9-5.1c-1.5-1.7-2.2-3.9-2.2-6.5c0-2.9,1-5.3,2.9-7.1    c1.9-1.8,4.4-2.7,7.5-2.7c1.8,0,3.3,0.2,4.7,0.6c1.4,0.5,2.5,1.1,3.7,2l0.6-2.2h2.4c0,1.7,0,3.3,0.1,4.9c0.1,1.6,0.1,3.2,0.2,4.8    h-2.3c-0.5-2.4-1.5-4.3-3.1-5.7c-1.5-1.4-3.4-2-5.6-2c-1.5,0-2.8,0.5-3.7,1.3c-1,0.9-1.4,2-1.4,3.3c0,1.9,1.9,3.7,5.7,5.4    c0.1,0.1,0.2,0.1,0.2,0.1c5,2.3,8.4,4.4,9.9,6.1c1.5,1.8,2.3,3.9,2.3,6.5c0,3.3-1.1,6-3.4,8c-2.3,2-5.2,3-9,3    c-2,0-3.8-0.3-5.3-0.8s-2.8-1.4-4-2.6l-0.6,2.5L317.3,471.7L317.3,471.7z"></path>
		<path id="XMLID_160_" fill="#89878A" d="M345.4,471.9v-2c2-0.1,3.3-0.4,3.9-1c0.6-0.6,0.9-1.9,0.9-4.1v-21c0-2-0.3-3.2-0.9-3.8    c-0.6-0.5-1.8-0.8-3.6-0.8h-0.3v-2.1c1.8,0.1,3.3,0.1,4.8,0.1s2.8,0.1,4,0.1c1.2,0,2.6,0,4.1-0.1c1.5,0,3.1-0.1,4.9-0.1v2.1h-0.6    c-1.5,0-2.7,0.3-3.3,1c-0.6,0.7-1,1.9-1,3.6v8.9h15.2v-8.9c0-2-0.3-3.3-1-3.8c-0.6-0.5-1.9-0.8-3.9-0.8v-2.1    c1.6,0.1,3.2,0.1,4.8,0.1s3.7,0.1,6.3,0.1c2,0,3.4,0,4.3-0.1c0.9,0,1.6-0.1,2.3-0.1v2.1h-0.2c-1.8,0-2.9,0.3-3.6,1    c-0.7,0.6-1,1.9-1,3.6v21c0,1.9,0.3,3.2,1,4c0.7,0.7,1.9,1.1,3.7,1.1v2c-1.9-0.1-3.6-0.1-5.2-0.1c-1.5,0-2.8-0.1-3.8-0.1    c-1.1,0-2.4,0-3.9,0.1c-1.5,0-3.1,0.1-4.9,0.1v-2c2-0.1,3.2-0.4,3.9-1c0.6-0.6,0.9-1.9,0.9-4.1v-9.4h-15.2v9.4    c0,1.9,0.3,3.2,1,3.9c0.7,0.7,1.9,1.1,3.7,1.1v2c-2-0.1-3.8-0.1-5.3-0.1s-2.7-0.1-3.6-0.1c-1.2,0-2.6,0-4,0.1    C348.8,471.8,347.3,471.8,345.4,471.9z"></path>
		<path id="XMLID_158_" fill="#89878A" d="M390.4,471.9v-2.2c1.9,0,3.2-0.4,3.9-1.2s1-2.7,1-5.6v-19.1c0-1.9-0.3-3.2-1-3.9    c-0.6-0.7-1.8-1.1-3.5-1.1h-0.4v-2c1.8,0.1,3.6,0.2,5.3,0.2c1.8,0.1,3.5,0.1,5.2,0.1c2.6,0,5.4,0,8.4-0.1c3-0.1,6.2-0.1,9.4-0.2v9    h-2.1c-0.6-2.5-1.5-4.2-2.8-5.1c-1.3-0.9-3.9-1.3-7.7-1.3c-1.4,0-2.2,0.1-2.4,0.3s-0.5,0.6-0.5,1.4v11.3h0.9c2,0,3.5-0.4,4.4-1.2    c0.9-0.9,1.6-2.3,2-4.5h2.2c-0.1,1-0.2,2-0.2,3.1c-0.1,1.1-0.1,2.3-0.1,3.7c0,1.2,0,2.4,0.1,3.6c0.1,1.2,0.1,2.4,0.2,3.6h-2    c-0.4-2.2-1.1-3.7-2-4.5c-1-0.9-2.5-1.2-4.7-1.2h-0.7v9.2c0,1.8,0.5,3.1,1.4,3.9c0.9,0.8,2.4,1.2,4.5,1.2c3.1,0,5.4-0.6,6.9-1.7    s2.4-3.2,2.9-6.1h1.9v10.5c-2.7-0.1-5.4-0.1-8.2-0.2c-2.8-0.1-6.3-0.1-10.7-0.1h-3.1c-2.4,0-4.2,0-5.4,0.1    C392.5,471.8,391.4,471.9,390.4,471.9z"></path>
		<path id="XMLID_156_" fill="#89878A" d="M424.5,471.9v-2.2c1.9,0,3.2-0.4,3.9-1.2s1-2.7,1-5.6v-19.1c0-1.9-0.3-3.2-1-3.9    c-0.6-0.7-1.8-1.1-3.5-1.1h-0.4v-2c1.8,0.1,3.6,0.2,5.3,0.2c1.8,0.1,3.5,0.1,5.2,0.1c2.6,0,5.4,0,8.4-0.1c3-0.1,6.2-0.1,9.4-0.2v9    h-2.1c-0.6-2.5-1.5-4.2-2.8-5.1s-3.9-1.3-7.7-1.3c-1.4,0-2.2,0.1-2.4,0.3s-0.5,0.6-0.5,1.4v11.3h0.9c2,0,3.5-0.4,4.4-1.2    c0.9-0.9,1.6-2.3,2-4.5h2.2c-0.1,1-0.2,2-0.2,3.1c-0.1,1.1-0.1,2.3-0.1,3.7c0,1.2,0,2.4,0.1,3.6c0.1,1.2,0.1,2.4,0.2,3.6h-2    c-0.4-2.2-1.1-3.7-2-4.5c-1-0.9-2.5-1.2-4.7-1.2h-0.6v9.2c0,1.8,0.5,3.1,1.4,3.9c0.9,0.8,2.4,1.2,4.5,1.2c3.1,0,5.4-0.6,6.9-1.7    c1.4-1.1,2.4-3.2,2.9-6.1h1.9v10.5c-2.7-0.1-5.4-0.1-8.2-0.2c-2.8-0.1-6.3-0.1-10.7-0.1h-3.1c-2.4,0-4.2,0-5.4,0.1    C426.6,471.8,425.5,471.9,424.5,471.9z"></path>
		<path id="XMLID_154_" fill="#89878A" d="M471.1,465.5V440c-0.3-0.1-0.6-0.1-0.9-0.1s-0.7,0-1.2,0c-2.9,0-5,0.5-6.2,1.6    c-1.3,1.1-2.2,2.9-2.5,5.6h-2l0.5-10c1.8,0.1,3.7,0.2,5.9,0.2c2.2,0.1,4.6,0.1,7.6,0.1c4.1,0,7.8,0,11.1-0.1    c3.2-0.1,6.2-0.1,8.9-0.2l0.5,9.9h-2c-0.4-2.6-1.3-4.5-2.6-5.6c-1.3-1.1-3.3-1.6-6-1.6c-0.5,0-1.2,0.1-2.3,0.1h-0.2v25.6    c0,1.6,0.3,2.7,1.1,3.3c0.7,0.6,2.2,0.9,4.3,1v2.1c-1.4-0.1-2.8-0.1-4.2-0.2c-1.4-0.1-2.9-0.1-4.5-0.1c-1.4,0-2.9,0-4.6,0.1    c-1.7,0.1-3.5,0.1-5.3,0.2v-2.1c2-0.1,3.4-0.4,4.1-1C470.8,468.3,471.1,467.2,471.1,465.5z"></path>
	</g>
	<g id="XMLID_136_">
		<rect id="XMLID_152_" x="392" y="499.5" fill="#E95C50" width="99.6" height="2.9"></rect>
		<rect id="XMLID_151_" x="118.9" y="499.6" fill="#E95C50" width="89.6" height="2.7"></rect>
		<g id="XMLID_137_">
			<path id="XMLID_149_" fill="#E95C50" d="M244.5,501.6h11v1.4c-1,0-1.6,0.2-2,0.5c-0.3,0.3-0.6,0.8-0.6,1.6v4.8h-0.3     c-0.6,0-1.1,0.1-1.8,0.2s-1.2,0.3-1.9,0.5c-0.2,0.1-0.6,0.2-1.1,0.5c-2.3,0.9-4.4,1.4-6.1,1.4c-3.6,0-6.5-1.1-8.7-3.2     s-3.3-5-3.3-8.4c0-1.5,0.2-2.8,0.5-4.1c0.3-1.3,0.9-2.4,1.6-3.5c1.2-1.8,2.6-3.1,4.3-3.9c1.6-0.9,3.5-1.3,5.6-1.3     c1.4,0,2.7,0.2,3.9,0.6s2.3,1,3.4,1.7l0.6-1.9h1.6l0.2,7.4h-1.5c-0.5-1.9-1.2-3.4-2.4-4.4c-1.2-1-2.7-1.5-4.4-1.5     c-2.2,0-4,1-5.2,2.9s-1.9,4.6-1.9,8c0,3.1,0.6,5.5,1.8,7.3s2.8,2.7,4.9,2.7c1.5,0,2.7-0.3,3.5-1c0.8-0.6,1.2-1.5,1.2-2.7v-1.6     c0-0.7-0.2-1.3-0.6-1.6c-0.4-0.3-1-0.6-1.9-0.6h-0.4L244.5,501.6L244.5,501.6z"></path>
			<path id="XMLID_146_" fill="#E95C50" d="M261.4,511.7v-1.5c1.5,0,2.4-0.2,2.9-0.7c0.5-0.5,0.7-1.4,0.7-2.7v-14.4     c0-1.2-0.2-1.9-0.7-2.3s-1.4-0.6-2.9-0.6v-1.4c0.6,0,1.3,0.1,1.9,0.1c0.7,0,1.5,0,2.6,0c0.7,0,1.9,0,3.5-0.1     c1.6-0.1,2.8-0.1,3.7-0.1c3.3,0,5.7,0.5,7.3,1.4c1.6,1,2.3,2.4,2.3,4.5c0,1.6-0.5,2.9-1.5,3.9c-1,1-2.4,1.7-4.3,2     c0.6,0.2,1.5,1.2,2.8,3c0.2,0.2,0.3,0.3,0.3,0.5l3.4,4.8c0.5,0.7,1,1.2,1.5,1.6c0.6,0.4,1.1,0.6,1.7,0.7v1.3     c-0.5-0.1-1.1-0.1-1.9-0.1c-0.8,0-1.6-0.1-2.5-0.1c-0.5,0-0.9,0-1.4,0c-0.5,0-0.9,0.1-1.4,0.1l-5.7-8.1c-0.8-1.1-1.4-1.9-1.8-2.2     c-0.4-0.3-0.9-0.5-1.4-0.5c-0.1,0-0.1,0-0.2,0c-0.1,0-0.1,0-0.2,0v6.2c0,1.2,0.2,2,0.7,2.5c0.5,0.5,1.3,0.7,2.5,0.7h0.2v1.5     c-1.9-0.1-3.6-0.1-4.9-0.1c-1.3,0-2.3,0-2.9,0c-1.1,0-2,0-2.7,0C262.6,511.7,262,511.7,261.4,511.7z M270.4,499.4     c0.1,0,0.3,0,0.5,0s0.4,0,0.7,0c1.8,0,3.2-0.4,4-1.2c0.8-0.8,1.3-2,1.3-3.7s-0.4-2.9-1.2-3.7c-0.8-0.8-2-1.2-3.7-1.2     c-0.7,0-1.1,0.1-1.3,0.3c-0.2,0.2-0.3,0.6-0.3,1.1V499.4L270.4,499.4z"></path>
			<path id="XMLID_143_" fill="#E95C50" d="M305,512.2c-3.9,0-7-1.1-9.4-3.4c-2.4-2.3-3.6-5.2-3.6-8.9c0-3.6,1.2-6.6,3.7-8.9     s5.7-3.4,9.6-3.4c2,0,3.8,0.3,5.4,0.9c1.6,0.6,3,1.5,4.3,2.7c1.2,1.1,2.1,2.4,2.7,3.9c0.6,1.5,0.9,3.1,0.9,4.8     c0,1.8-0.3,3.5-1,4.9s-1.6,2.8-2.8,4c-1.3,1.2-2.7,2-4.4,2.6C308.8,511.9,307,512.2,305,512.2z M298.4,500c0,3.5,0.6,6.1,1.8,7.8     s3,2.7,5.3,2.7c2.3,0,4-0.9,5.2-2.6c1.1-1.7,1.6-4.4,1.6-8c0-3.5-0.6-6.1-1.8-7.9c-1.2-1.8-3-2.7-5.3-2.7c-2.3,0-4.1,0.9-5.2,2.6     C298.9,493.6,298.4,496.4,298.4,500z"></path>
			<path id="XMLID_141_" fill="#E95C50" d="M329,502.1v-8.6c0-1.6-0.2-2.7-0.6-3.2c-0.5-0.5-1.3-0.8-2.6-0.8v-1.4     c1,0.1,2,0.1,3.1,0.1c1,0,1.9,0,2.8,0c1.1,0,2.2,0,3.2-0.1c1,0,2.1-0.1,3.1-0.1v1.4c-1.4,0.1-2.3,0.4-2.7,0.8     c-0.5,0.5-0.7,1.5-0.7,3v9.1c0,2.7,0.5,4.6,1.4,5.7c0.9,1.1,2.5,1.6,4.6,1.6c1.3,0,2.4-0.2,3.5-0.6c1-0.4,1.8-1,2.3-1.7     c0.4-0.6,0.7-1.4,0.9-2.3c0.2-0.9,0.3-2.2,0.3-3.8v-8c0-1.4-0.2-2.4-0.7-2.9c-0.5-0.6-1.3-0.9-2.6-1V488c0.6,0.1,1.3,0.1,2,0.1     s1.4,0,2.1,0c0.9,0,1.6,0,2.4,0c0.7,0,1.3-0.1,1.9-0.1v1.4c-1.2,0.1-2,0.5-2.5,1c-0.5,0.6-0.7,1.5-0.7,2.9v8     c0,1.9-0.1,3.3-0.3,4.4c-0.2,1.1-0.6,2-1.2,2.8c-0.8,1.1-1.9,2-3.4,2.6c-1.5,0.6-3.2,0.9-5.2,0.9c-1.9,0-3.5-0.2-4.9-0.7     c-1.4-0.5-2.5-1.2-3.4-2.1c-0.7-0.7-1.2-1.6-1.5-2.8C329.2,505.5,329,504,329,502.1z"></path>
			<path id="XMLID_138_" fill="#E95C50" d="M359.8,511.7v-1.4c1.2-0.1,2-0.3,2.4-0.7c0.4-0.4,0.6-1.1,0.6-2.2v-15     c0-1.1-0.2-1.9-0.6-2.2c-0.4-0.3-1.2-0.6-2.5-0.7v-1.4c0.5,0.1,1,0.1,1.6,0.1c0.6,0,1.3,0,2.3,0c0.4,0,1.2,0,2.6-0.1     c1.4,0,2.5-0.1,3.4-0.1c3.9,0,6.6,0.5,8.3,1.5c1.7,1,2.6,2.6,2.6,4.8c0,2.3-0.9,4-2.6,5c-1.7,1.1-4.3,1.6-7.9,1.6     c-0.5,0-0.8,0-1,0c-0.2,0-0.5,0-0.7,0v6.2c0,1.2,0.2,2,0.7,2.4c0.5,0.4,1.4,0.6,2.6,0.6h0.2v1.4c-1.1-0.1-2.3-0.1-3.6-0.1     c-1.4,0-2.8,0-4.5,0c-1.2,0-2.2,0-2.7,0C360.7,511.7,360.2,511.7,359.8,511.7z M368.4,499.3c0.1,0,0.2,0,0.3,0c0.1,0,0.3,0,0.6,0     c1.9,0,3.2-0.4,4-1.2c0.8-0.8,1.2-2,1.2-3.9c0-1.5-0.3-2.6-1.1-3.3c-0.7-0.7-1.8-1.1-3.2-1.1c-0.7,0-1.2,0.1-1.5,0.2     c-0.2,0.1-0.4,0.4-0.4,0.7L368.4,499.3L368.4,499.3z"></path>
		</g>
	</g>
</g>
</svg>